<?xml version="1.0" encoding="utf-8"?>
<!-- Generator: Adobe Illustrator 27.4.1, SVG Export Plug-In . SVG Version: 6.00 Build 0)  -->
<svg version="1.1"
	 id="placeholder" xmlns:dc="http://purl.org/dc/elements/1.1/" xmlns:cc="http://creativecommons.org/ns#" xmlns:rdf="http://www.w3.org/1999/02/22-rdf-syntax-ns#" xmlns:svg="http://www.w3.org/2000/svg" xmlns:sodipodi="http://sodipodi.sourceforge.net/DTD/sodipodi-0.dtd" xmlns:inkscape="http://www.inkscape.org/namespaces/inkscape"
	 xmlns="http://www.w3.org/2000/svg" xmlns:xlink="http://www.w3.org/1999/xlink" x="0px" y="0px" viewBox="0 0 164.4 149"
	 style="enable-background:new 0 0 164.4 149;" xml:space="preserve">
<style type="text/css">
	.st0{display:none;fill:#EEEEEE;}
	.st1{fill:#9F9F9F;}
	
		.st2{fill:url(#rect961_00000163791888801128648480000012926620758564725656_);stroke:#FFFFFF;stroke-width:5.398;stroke-linecap:round;stroke-linejoin:round;}
	
		.st3{fill-rule:evenodd;clip-rule:evenodd;fill:#CCCCCC;stroke:#FFFFFF;stroke-width:0.3896;stroke-linecap:round;stroke-linejoin:round;stroke-miterlimit:1.7265;}
	
		.st4{fill-rule:evenodd;clip-rule:evenodd;fill:#FFFFFF;stroke:#FFFFFF;stroke-width:0.3896;stroke-linecap:round;stroke-linejoin:round;stroke-miterlimit:1.7265;}
	
		.st5{fill-rule:evenodd;clip-rule:evenodd;fill:#B3B3B3;stroke:#FFFFFF;stroke-width:0.3896;stroke-linecap:round;stroke-linejoin:round;stroke-miterlimit:1.7265;}
	.st6{fill:#FFFFFF;}
	.st7{font-family:'Phosphate-Inline';}
	.st8{font-size:19.9px;}
</style>
<path id="bg" class="st0" d="M-72.6-63.4h315.8c3.9,0,7,3.1,7,7v392c0,3.9-3.1,7-7,7H-72.6c-3.9,0-7-3.1-7-7v-392
	C-79.6-60.3-76.5-63.4-72.6-63.4z"/>
<g id="icon" transform="translate(43.778173,191.04163)">
	<path id="icon_x5F_bottom" class="st1" d="M-37.7-129.2l63-18.5c4.5-1.3,9.1,1.2,10.4,5.7l20.7,70.7c1.3,4.5-1.2,9.1-5.7,10.4
		l-63,18.5c-4.5,1.3-9.1-1.2-10.4-5.7l-20.7-70.7C-44.7-123.3-42.2-127.9-37.7-129.2z"/>
	<g id="icon_x5F_top" transform="rotate(16.320529,538.13563,-184.89727)">
		
			<linearGradient id="rect961_00000078766933069755277610000003396025005771199624_" gradientUnits="userSpaceOnUse" x1="868.9426" y1="368.8498" x2="867.3341" y2="471.0266" gradientTransform="matrix(1 8.875644e-06 -8.875644e-06 1 -793.1636 -402.234)">
			<stop  offset="0" style="stop-color:#C2C2C2"/>
			<stop  offset="1" style="stop-color:#9F9F9F"/>
		</linearGradient>
		
			<path id="rect961" style="fill:url(#rect961_00000078766933069755277610000003396025005771199624_);stroke:#FFFFFF;stroke-width:5.398;stroke-linecap:round;stroke-linejoin:round;" d="
			M40-42.4l98.6,0c2.5,0,4.6,2.1,4.6,4.6l0,106.8c0,2.5-2.1,4.6-4.6,4.6l-98.6,0c-2.5,0-4.6-2.1-4.6-4.6l0-106.8
			C35.4-40.4,37.5-42.4,40-42.4z"/>
		<g id="g875" transform="matrix(0.17265471,0,0,0.17265471,512.49324,-6.3296456)">
			
				<rect id="rect3338" x="-2673.7" y="-168.7" transform="matrix(5.638356e-06 1 -1 5.638356e-06 -2371.751 2525.5486)" class="st3" width="450" height="491.1"/>
			
				<rect id="rect3342" x="-2553.7" y="-288.7" transform="matrix(5.638356e-06 1 -1 5.638356e-06 -2491.7485 2405.5496)" class="st4" width="210" height="491.1"/>
			
				<path id="path3344" inkscape:connector-curvature="0" inkscape:original-d="m 300,317.36255 38.46147,-53.53818 60.53097,-45.16084 15.88277,18.57394 13.61285,-38.68356 8.20133,-2.98188 13.3106,-28.2093 180,179.99979" inkscape:path-effect="#path-effect3346" sodipodi:nodetypes="cccccccc" class="st3" d="
				M-2664.2,61.9l38.5-53.5l60.5-45.2l15.9,18.6l13.6-38.7l8.2-3l13.3-28.2l180,180"/>
			<path id="path3390-0" inkscape:connector-curvature="0" sodipodi:nodetypes="cscccccccccccc" class="st5" d="M-2514.2-88.1
				c4.1,16.5,7.7,33.1,10.9,49.7c2.4,12.7,4.5,25.4,6.3,38.1l-22.1-7.2l-46.1-29.4l5.3,46.4l-1.6,24.8l10.1,30.4l73.2-11.8
				l84.1-21.1l-47.8-77.4l-9.7,14.9l-27.1-22.1L-2514.2-88.1z"/>
			
				<path id="path3358" inkscape:connector-curvature="0" inkscape:original-d="m 419.99999,347.36252 81.89918,-74.42959 18.50574,-9.68009 23.6512,-44.18894 25.94388,-21.70121 179.99999,179.99979" inkscape:path-effect="#path-effect3360" sodipodi:nodetypes="cccccc" class="st3" d="
				M-2544.2,91.9l81.9-74.4l18.5-9.7l23.7-44.2l25.9-21.7l180,180"/>
			
				<path id="path3386" inkscape:connector-curvature="0" inkscape:original-d="m 569.99999,197.36269 35.9388,80.91289 v 30.11038 30.11038 l 22.45864,19.46652 c 5.77311,-6.36416 13.54339,-11.40815 22.44431,-15.70477 13.00316,-6.27685 32.0432,-8.74899 47.17057,-13.6217 6.8762,-2.21491 12.68001,-4.81998 18.21343,-7.87277 1.55883,-0.86001 1.99765,-2.671 3.77424,-3.40107 h -30 l -40.52149,-40.55006 -29.85645,-48.91972 -10.25307,8.83886 z" inkscape:path-effect="#path-effect3388" sodipodi:nodetypes="cccccssscccccc" class="st5" d="
				M-2394.2-58.1l35.9,80.9v30.1V83l22.5,19.5c6.5-6.5,14.1-11.8,22.4-15.7c14.8-7,31.3-9.4,47.2-13.6c6.4-1.7,12.9-3.9,18.2-7.9
				c1.4-1,2.6-2.2,3.8-3.4l-30,0l-40.5-40.5l-29.9-48.9l-10.3,8.8L-2394.2-58.1z"/>
			<path id="path3370" inkscape:connector-curvature="0" sodipodi:nodetypes="cssssscsssssc" class="st4" d="M-2544.2,301.9
				c-0.4-9.6-8.8-17.6,17.1-30.7c31.8-16,125.9-35.9,152.2-60c19.4-17.8-70.4-37.7-55-59.1c7-9.7,59-20,82.1-30.3
				c21.9-9.8,15.1-19.8,31.4-30c15.7-9.8,68.3-19.8,72.2-30c-10.4,10.5-68.8,20.4-90,30c-22.3,10.1-21.5,19.9-49.4,29.5
				c-30.1,10.3-89.1,20.6-102.7,30.5c-28.4,20.9,46.9,42.6,16.2,60c-41.5,23.6-149.3,43.3-194.1,60c-30.9,11.5-28.4,17.7-30,30"/>
		</g>
	</g>
</g>
<text transform="matrix(0.9565 0.2918 -0.2918 0.9565 39.8211 106.264)" class="st6 st7 st8">NO IMAGE</text>
</svg>
